<svg width="113" height="113" viewBox="0 0 113 113" fill="none" xmlns="http://www.w3.org/2000/svg">
<circle opacity="0.8" cx="56.1336" cy="56.1335" r="45" transform="rotate(-73.1088 56.1336 56.1335)" fill="#0051CA"/>
<g clip-path="url(#clip0_12040_860348)">
<path d="M73.664 72.4251L58.374 36.0306C58.2019 35.6981 57.9432 35.4183 57.6253 35.2206C57.3074 35.0229 56.942 34.9147 56.5677 34.9074C56.1934 34.9 55.824 34.9938 55.4986 35.1789C55.1732 35.364 54.9038 35.6335 54.7187 35.9589L38.0148 71.7266C37.884 72.0063 37.8194 72.3124 37.8261 72.6211C37.8328 72.9298 37.9107 73.2328 38.0535 73.5065C38.1964 73.7802 38.4005 74.0173 38.6499 74.1994C38.8993 74.3814 39.1874 74.5034 39.4916 74.556C39.898 74.6246 40.3156 74.5657 40.6872 74.3874L55.9366 67.1128L70.8894 74.9792C71.1622 75.1239 71.4649 75.2032 71.7736 75.211C72.0823 75.2188 72.3886 75.1549 72.6685 75.0243C72.9483 74.8937 73.194 74.6999 73.3862 74.4582C73.5784 74.2166 73.712 73.9336 73.7763 73.6315C73.8631 73.2287 73.8239 72.8089 73.6639 72.4291L73.664 72.4251Z" fill="#F0F0F0"/>
</g>
<defs>
<clipPath id="clip0_12040_860348">
<rect width="40" height="40" fill="white" transform="translate(36.5703 34.5156) rotate(1.12258)"/>
</clipPath>
</defs>
</svg>
